G75*
G70*
%OFA0B0*%
%FSLAX24Y24*%
%IPPOS*%
%LPD*%
%AMOC8*
5,1,8,0,0,1.08239X$1,22.5*
%
%ADD10C,0.0080*%
%ADD11C,0.0060*%
D10*
X002806Y003453D02*
X002806Y003817D01*
X007854Y003817D01*
X007854Y003453D01*
X007854Y003817D02*
X007854Y006367D01*
X002806Y006367D02*
X002806Y003817D01*
D11*
X001080Y000410D02*
X000580Y000410D01*
X000330Y000660D01*
X000330Y001160D01*
X000580Y001410D01*
X001080Y001410D01*
X001330Y001160D01*
X001580Y001410D01*
X002080Y001410D01*
X002330Y001160D01*
X002330Y000660D01*
X002080Y000410D01*
X001580Y000410D01*
X001330Y000660D01*
X001080Y000410D01*
X001330Y000660D02*
X001330Y001160D01*
X002330Y001160D02*
X002580Y001410D01*
X003080Y001410D01*
X003330Y001160D01*
X003580Y001410D01*
X004080Y001410D01*
X004330Y001160D01*
X004580Y001410D01*
X005080Y001410D01*
X005330Y001160D01*
X005330Y000660D01*
X005080Y000410D01*
X004580Y000410D01*
X004330Y000660D01*
X004080Y000410D01*
X003580Y000410D01*
X003330Y000660D01*
X003080Y000410D01*
X002580Y000410D01*
X002330Y000660D01*
X003330Y000660D02*
X003330Y001160D01*
X004330Y001160D02*
X004330Y000660D01*
X005330Y000660D02*
X005580Y000410D01*
X006080Y000410D01*
X006330Y000660D01*
X006580Y000410D01*
X007080Y000410D01*
X007330Y000660D01*
X007580Y000410D01*
X008080Y000410D01*
X008330Y000660D01*
X008330Y001160D01*
X008080Y001410D01*
X007580Y001410D01*
X007330Y001160D01*
X007330Y000660D01*
X007330Y001160D02*
X007080Y001410D01*
X006580Y001410D01*
X006330Y001160D01*
X006330Y000660D01*
X006330Y001160D02*
X006080Y001410D01*
X005580Y001410D01*
X005330Y001160D01*
X008330Y001160D02*
X008580Y001410D01*
X009080Y001410D01*
X009330Y001160D01*
X009580Y001410D01*
X010080Y001410D01*
X010330Y001160D01*
X010330Y000660D01*
X010080Y000410D01*
X009580Y000410D01*
X009330Y000660D01*
X009080Y000410D01*
X008580Y000410D01*
X008330Y000660D01*
X009330Y000660D02*
X009330Y001160D01*
X009080Y008410D02*
X008580Y008410D01*
X008330Y008660D01*
X008080Y008410D01*
X007580Y008410D01*
X007330Y008660D01*
X007080Y008410D01*
X006580Y008410D01*
X006330Y008660D01*
X006080Y008410D01*
X005580Y008410D01*
X005330Y008660D01*
X005080Y008410D01*
X004580Y008410D01*
X004330Y008660D01*
X004080Y008410D01*
X003580Y008410D01*
X003330Y008660D01*
X003080Y008410D01*
X002580Y008410D01*
X002330Y008660D01*
X002080Y008410D01*
X001580Y008410D01*
X001330Y008660D01*
X001080Y008410D01*
X000580Y008410D01*
X000330Y008660D01*
X000330Y009160D01*
X000580Y009410D01*
X001080Y009410D01*
X001330Y009160D01*
X001580Y009410D01*
X002080Y009410D01*
X002330Y009160D01*
X002330Y008660D01*
X002330Y009160D02*
X002580Y009410D01*
X003080Y009410D01*
X003330Y009160D01*
X003580Y009410D01*
X004080Y009410D01*
X004330Y009160D01*
X004580Y009410D01*
X005080Y009410D01*
X005330Y009160D01*
X005330Y008660D01*
X005330Y009160D02*
X005580Y009410D01*
X006080Y009410D01*
X006330Y009160D01*
X006580Y009410D01*
X007080Y009410D01*
X007330Y009160D01*
X007580Y009410D01*
X008080Y009410D01*
X008330Y009160D01*
X008330Y008660D01*
X008330Y009160D02*
X008580Y009410D01*
X009080Y009410D01*
X009330Y009160D01*
X009580Y009410D01*
X010080Y009410D01*
X010330Y009160D01*
X010330Y008660D01*
X010080Y008410D01*
X009580Y008410D01*
X009330Y008660D01*
X009080Y008410D01*
X009330Y008660D02*
X009330Y009160D01*
X007330Y009160D02*
X007330Y008660D01*
X006330Y008660D02*
X006330Y009160D01*
X004330Y009160D02*
X004330Y008660D01*
X003330Y008660D02*
X003330Y009160D01*
X001330Y009160D02*
X001330Y008660D01*
M02*
