G75*
G70*
%OFA0B0*%
%FSLAX24Y24*%
%IPPOS*%
%LPD*%
%AMOC8*
5,1,8,0,0,1.08239X$1,22.5*
%
%ADD10R,0.0316X0.0946*%
%ADD11C,0.0680*%
D10*
X003080Y003030D03*
X003580Y003030D03*
X004080Y003030D03*
X004580Y003030D03*
X005080Y003030D03*
X005580Y003030D03*
X006080Y003030D03*
X006580Y003030D03*
X007080Y003020D03*
X007580Y003020D03*
X007580Y006800D03*
X007080Y006800D03*
X006580Y006800D03*
X006080Y006800D03*
X005580Y006800D03*
X005080Y006800D03*
X004580Y006800D03*
X004080Y006800D03*
X003580Y006800D03*
X003080Y006800D03*
D11*
X000830Y001210D02*
X000830Y000610D01*
X001830Y000610D02*
X001830Y001210D01*
X002830Y001210D02*
X002830Y000610D01*
X003830Y000610D02*
X003830Y001210D01*
X004830Y001210D02*
X004830Y000610D01*
X005830Y000610D02*
X005830Y001210D01*
X006830Y001210D02*
X006830Y000610D01*
X007830Y000610D02*
X007830Y001210D01*
X008830Y001210D02*
X008830Y000610D01*
X009830Y000610D02*
X009830Y001210D01*
X009830Y008610D02*
X009830Y009210D01*
X008830Y009210D02*
X008830Y008610D01*
X007830Y008610D02*
X007830Y009210D01*
X006830Y009210D02*
X006830Y008610D01*
X005830Y008610D02*
X005830Y009210D01*
X004830Y009210D02*
X004830Y008610D01*
X003830Y008610D02*
X003830Y009210D01*
X002830Y009210D02*
X002830Y008610D01*
X001830Y008610D02*
X001830Y009210D01*
X000830Y009210D02*
X000830Y008610D01*
M02*
