G75*
G70*
%OFA0B0*%
%FSLAX24Y24*%
%IPPOS*%
%LPD*%
%AMOC8*
5,1,8,0,0,1.08239X$1,22.5*
%
%ADD10C,0.0080*%
%ADD11C,0.0100*%
%ADD12C,0.0060*%
%ADD13C,0.0300*%
%ADD14R,0.1520X0.0500*%
%ADD15R,0.0420X0.0360*%
%ADD16C,0.0120*%
D10*
X010276Y002493D02*
X010276Y002857D01*
X015324Y002857D01*
X015324Y002493D01*
X015324Y002857D02*
X015324Y005407D01*
X010276Y005407D02*
X010276Y002857D01*
D11*
X000150Y001850D02*
X000150Y005750D01*
X002650Y005750D01*
X002650Y001850D01*
X000150Y001850D01*
X002650Y001850D02*
X006050Y001850D01*
X006050Y005750D01*
X002650Y005750D01*
X000500Y003800D02*
X000502Y003852D01*
X000508Y003904D01*
X000518Y003956D01*
X000531Y004006D01*
X000548Y004056D01*
X000569Y004104D01*
X000594Y004150D01*
X000622Y004194D01*
X000653Y004236D01*
X000687Y004276D01*
X000724Y004313D01*
X000764Y004347D01*
X000806Y004378D01*
X000850Y004406D01*
X000896Y004431D01*
X000944Y004452D01*
X000994Y004469D01*
X001044Y004482D01*
X001096Y004492D01*
X001148Y004498D01*
X001200Y004500D01*
X001252Y004498D01*
X001304Y004492D01*
X001356Y004482D01*
X001406Y004469D01*
X001456Y004452D01*
X001504Y004431D01*
X001550Y004406D01*
X001594Y004378D01*
X001636Y004347D01*
X001676Y004313D01*
X001713Y004276D01*
X001747Y004236D01*
X001778Y004194D01*
X001806Y004150D01*
X001831Y004104D01*
X001852Y004056D01*
X001869Y004006D01*
X001882Y003956D01*
X001892Y003904D01*
X001898Y003852D01*
X001900Y003800D01*
X001898Y003748D01*
X001892Y003696D01*
X001882Y003644D01*
X001869Y003594D01*
X001852Y003544D01*
X001831Y003496D01*
X001806Y003450D01*
X001778Y003406D01*
X001747Y003364D01*
X001713Y003324D01*
X001676Y003287D01*
X001636Y003253D01*
X001594Y003222D01*
X001550Y003194D01*
X001504Y003169D01*
X001456Y003148D01*
X001406Y003131D01*
X001356Y003118D01*
X001304Y003108D01*
X001252Y003102D01*
X001200Y003100D01*
X001148Y003102D01*
X001096Y003108D01*
X001044Y003118D01*
X000994Y003131D01*
X000944Y003148D01*
X000896Y003169D01*
X000850Y003194D01*
X000806Y003222D01*
X000764Y003253D01*
X000724Y003287D01*
X000687Y003324D01*
X000653Y003364D01*
X000622Y003406D01*
X000594Y003450D01*
X000569Y003496D01*
X000548Y003544D01*
X000531Y003594D01*
X000518Y003644D01*
X000508Y003696D01*
X000502Y003748D01*
X000500Y003800D01*
D12*
X002800Y001900D02*
X002800Y005700D01*
X005900Y005700D02*
X005900Y001900D01*
X013050Y001350D02*
X013050Y000850D01*
X013052Y000824D01*
X013057Y000798D01*
X013065Y000773D01*
X013077Y000750D01*
X013091Y000728D01*
X013109Y000709D01*
X013128Y000691D01*
X013150Y000677D01*
X013173Y000665D01*
X013198Y000657D01*
X013224Y000652D01*
X013250Y000650D01*
X014550Y000650D01*
X014576Y000652D01*
X014602Y000657D01*
X014627Y000665D01*
X014650Y000677D01*
X014672Y000691D01*
X014691Y000709D01*
X014709Y000728D01*
X014723Y000750D01*
X014735Y000773D01*
X014743Y000798D01*
X014748Y000824D01*
X014750Y000850D01*
X014750Y001350D01*
X014748Y001376D01*
X014743Y001402D01*
X014735Y001427D01*
X014723Y001450D01*
X014709Y001472D01*
X014691Y001491D01*
X014672Y001509D01*
X014650Y001523D01*
X014627Y001535D01*
X014602Y001543D01*
X014576Y001548D01*
X014550Y001550D01*
X013250Y001550D01*
X013224Y001548D01*
X013198Y001543D01*
X013173Y001535D01*
X013150Y001523D01*
X013128Y001509D01*
X013109Y001491D01*
X013091Y001472D01*
X013077Y001450D01*
X013065Y001427D01*
X013057Y001402D01*
X013052Y001376D01*
X013050Y001350D01*
X012850Y006300D02*
X011550Y006300D01*
X011524Y006302D01*
X011498Y006307D01*
X011473Y006315D01*
X011450Y006327D01*
X011428Y006341D01*
X011409Y006359D01*
X011391Y006378D01*
X011377Y006400D01*
X011365Y006423D01*
X011357Y006448D01*
X011352Y006474D01*
X011350Y006500D01*
X011350Y007000D01*
X011352Y007026D01*
X011357Y007052D01*
X011365Y007077D01*
X011377Y007100D01*
X011391Y007122D01*
X011409Y007141D01*
X011428Y007159D01*
X011450Y007173D01*
X011473Y007185D01*
X011498Y007193D01*
X011524Y007198D01*
X011550Y007200D01*
X012850Y007200D01*
X012876Y007198D01*
X012902Y007193D01*
X012927Y007185D01*
X012950Y007173D01*
X012972Y007159D01*
X012991Y007141D01*
X013009Y007122D01*
X013023Y007100D01*
X013035Y007077D01*
X013043Y007052D01*
X013048Y007026D01*
X013050Y007000D01*
X013050Y006500D01*
X013048Y006474D01*
X013043Y006448D01*
X013035Y006423D01*
X013023Y006400D01*
X013009Y006378D01*
X012991Y006359D01*
X012972Y006341D01*
X012950Y006327D01*
X012927Y006315D01*
X012902Y006307D01*
X012876Y006302D01*
X012850Y006300D01*
D13*
X005650Y002150D03*
D14*
X006840Y002800D03*
X006840Y003800D03*
X006840Y004800D03*
D15*
X007790Y004800D03*
X007790Y003800D03*
X007790Y002800D03*
D16*
X013780Y001400D02*
X013780Y000800D01*
X014030Y000800D02*
X014030Y001400D01*
X012330Y006450D02*
X012330Y007050D01*
X012080Y007050D02*
X012080Y006450D01*
M02*
